# xmcd
#
# Track frame offsets: 
#        150
#        13102
#        25778
#        37695
#        50377
#        62544
#        73598
#        84970
#        95492
#        106794
#        118972
#        134038
#        146800
#        159406
#        172699
#        185587
#        197584
#        210796
#        224065
#        236139
#        250480
#        262818
#        275972
#        289051
#        296377
#        311319
#
# Disc length: 4303 seconds
#
# Revision: 2
# Processed by: cddbd v1.5.2PL0 Copyright (c) Steve Scherf et al.
# Submitted via: ExactAudioCopy v1.0b3
#
DISCID=7a10cd1a
DTITLE=Hank Snow - I'm Movin' On
DYEAR=2002
DGENRE=Country
TTITLE0=I'm Movin' On  (Snow) 1950
TTITLE1=The Golden Rocket (Snow) 1950
TTITLE2=Marriage Vow (Carson) 1949
TTITLE3=The Rhumba Boogie (Snow) 1951
TTITLE4=Blue Bird Island (Snow) 1951
TTITLE5=Music Makin' Mama From Memphis (Snow) 1951
TTITLE6=With This Ring I Thee Wed (Nelson-Rollins-Nelson) 1950
TTITLE7=Unwanted Sign Upon Your Heart (Snow) 1951
TTITLE8=(Now And Then There's) A Fool Such As I (Trader) 1951
TTITLE9=Paving The Highway With Tears (Nelson-Nelson) 1950
TTITLE10=Nobody's Child (Coben-Foree) 1949
TTITLE11=I Wonder Where You Are Tonight (Bond) 1949
TTITLE12=The Blind Boy's Dog (McEnery) 1949
TTITLE13=We'll Never Say Goodbye, Just So Long (Snow) 1943
TTITLE14=The Anniversary Of MY Broken Heart (Snow) 1950
TTITLE15=My Two Timin' Woman (Snow) 1950
TTITLE16=My San Antonio Mamma (Snow) 1938
TTITLE17=Confused With The Blues (Snow) 1952
TTITLE18=Wandering On (Snow) 1941
TTITLE19=Someday You'll Care (Snow) 1939
TTITLE20=Blue Velvet Band (Trad ) 1938
TTITLE21=Linda Lou (Rogers-Whelan) 1947
TTITLE22=We Met In The Hills Of Old Wyoming (Snow) 1938
TTITLE23=The Hawaiian Cowboy (Snow) 1951
TTITLE24=Address Unknown (Snow) 1950
TTITLE25=Hobo Bill's Last Ride (Snow) 1951
EXTD=
EXTT0=
EXTT1=
EXTT2=
EXTT3=
EXTT4=
EXTT5=
EXTT6=
EXTT7=
EXTT8=
EXTT9=
EXTT10=
EXTT11=
EXTT12=
EXTT13=
EXTT14=
EXTT15=
EXTT16=
EXTT17=
EXTT18=
EXTT19=
EXTT20=
EXTT21=
EXTT22=
EXTT23=
EXTT24=
EXTT25=
PLAYORDER=
